<?xml version="1.0" encoding="UTF-8" standalone="no"?>
<svg
   xmlns:dc="http://purl.org/dc/elements/1.1/"
   xmlns:cc="http://creativecommons.org/ns#"
   xmlns:rdf="http://www.w3.org/1999/02/22-rdf-syntax-ns#"
   xmlns:svg="http://www.w3.org/2000/svg"
   xmlns="http://www.w3.org/2000/svg"
   xmlns:sodipodi="http://sodipodi.sourceforge.net/DTD/sodipodi-0.dtd"
   xmlns:inkscape="http://www.inkscape.org/namespaces/inkscape"
   id="Layer_1"
   enable-background="new 0 0 511.413 511.413"
   height="543.66016"
   viewBox="0 0 2383.8147 543.03687"
   width="2386.5508"
   version="1.1"
   sodipodi:docname="logo_with_title.svg"
   inkscape:version="0.92.4 (f8dce91, 2019-08-02)">
  <metadata
     id="metadata4030">
    <rdf:RDF>
      <cc:Work
         rdf:about="">
        <dc:format>image/svg+xml</dc:format>
        <dc:type
           rdf:resource="http://purl.org/dc/dcmitype/StillImage" />
        <dc:title></dc:title>
      </cc:Work>
    </rdf:RDF>
  </metadata>
  <defs
     id="defs4028" />
  <sodipodi:namedview
     pagecolor="#ffffff"
     bordercolor="#666666"
     borderopacity="1"
     objecttolerance="10"
     gridtolerance="10"
     guidetolerance="10"
     inkscape:pageopacity="0"
     inkscape:pageshadow="2"
     inkscape:window-width="1850"
     inkscape:window-height="1005"
     id="namedview4026"
     showgrid="false"
     inkscape:zoom="0.32593203"
     inkscape:cx="879.14052"
     inkscape:cy="545.31788"
     inkscape:window-x="70"
     inkscape:window-y="38"
     inkscape:window-maximized="1"
     inkscape:current-layer="Layer_1"
     fit-margin-top="0"
     fit-margin-left="0"
     fit-margin-right="0"
     fit-margin-bottom="0" />
  <path
     style="color:#000000;font-style:normal;font-variant:normal;font-weight:normal;font-stretch:normal;font-size:medium;line-height:normal;font-family:sans-serif;font-variant-ligatures:normal;font-variant-position:normal;font-variant-caps:normal;font-variant-numeric:normal;font-variant-alternates:normal;font-feature-settings:normal;text-indent:0;text-align:start;text-decoration:none;text-decoration-line:none;text-decoration-style:solid;text-decoration-color:#000000;letter-spacing:normal;word-spacing:normal;text-transform:none;writing-mode:lr-tb;direction:ltr;text-orientation:mixed;dominant-baseline:auto;baseline-shift:baseline;text-anchor:start;white-space:normal;shape-padding:0;clip-rule:nonzero;display:inline;overflow:visible;visibility:visible;opacity:1;isolation:auto;mix-blend-mode:normal;color-interpolation:sRGB;color-interpolation-filters:linearRGB;solid-color:#000000;solid-opacity:1;vector-effect:none;fill:#ffffff;fill-opacity:1;fill-rule:nonzero;stroke:none;stroke-width:35.95872879;stroke-linecap:butt;stroke-linejoin:miter;stroke-miterlimit:4;stroke-dasharray:none;stroke-dashoffset:0;stroke-opacity:1;color-rendering:auto;image-rendering:auto;shape-rendering:auto;text-rendering:auto;enable-background:accumulate"
     d="M 100.32626,0 C 45.056899,0 0,45.056899 0,100.32626 v 342.3863 c 0,55.26935 45.056901,100.32431 100.32626,100.32431 h 342.3863 c 55.26935,0 100.32431,-45.05496 100.32431,-100.32431 V 100.32626 C 543.03687,45.056901 497.98191,0 442.71256,0 Z m 0,35.958727 h 342.3863 c 35.97021,0 64.36558,28.397317 64.36558,64.367533 v 342.3863 c 0,35.97021 -28.39537,64.36558 -64.36558,64.36558 h -342.3863 c -35.970216,0 -64.367533,-28.39537 -64.367533,-64.36558 v -342.3863 c 0,-35.970213 28.39732,-64.367533 64.367533,-64.367533 z m 169.4754,62.828278 c -53.44597,0.469879 -105.45013,34.215705 -122.05522,92.520755 -29.3405,-5.15957 -57.899172,6.82408 -72.848032,23.47111 -50.543663,51.74968 -13.468676,139.05914 58.559742,139.05914 h 38.42269 c 8.49341,46.67142 49.44044,82.16936 98.52559,82.16936 49.08516,0 90.03217,-35.49794 98.52559,-82.16936 h 29.29254 c 26.91479,0 52.29703,-11.81559 69.64077,-32.41787 0.42712,-0.50757 0.82699,-1.04069 1.1959,-1.59192 C 523.93762,238.49153 460.4303,126.85444 360.22716,135.76214 334.45676,110.2026 301.86922,98.505074 269.80166,98.787005 Z m 1.04372,35.929455 c 15.89701,0.0454 32.06274,4.23529 46.87588,13.17629 -33.98223,17.12976 -58.63334,50.15283 -64.12756,89.24327 -41.38605,7.02634 -74.2095,39.52765 -81.7109,80.75106 h -38.42465 c -25.3296,0 -45.937511,-20.60703 -45.937511,-45.9375 0,-33.58422 35.174501,-55.98242 65.655111,-41.47778 13.48778,6.39638 13.85002,14.26487 25.47272,14.26487 15.86901,0 24.06738,-19.32812 12.71001,-30.68547 -3.19517,-3.1952 -6.5999,-6.05542 -10.1563,-8.61122 10.13604,-43.88909 49.01753,-70.83964 89.6432,-70.72352 z m 99.9907,36.52449 c 65.90851,0 104.60153,73.57917 68.92284,127.7323 -10.47831,12.03184 -25.56181,18.91383 -41.53436,18.91383 h -29.2906 c -7.33618,-40.31186 -38.88583,-72.28328 -78.97771,-80.24773 7.49798,-37.85533 40.97798,-66.3984 80.87983,-66.3984 z m 1425.70742,40.84179 c -8.2779,0 -14.64,2.22259 -19.0856,6.66813 -4.4456,4.44557 -6.6681,10.80762 -6.6681,19.08552 0,8.27789 2.2225,14.71688 6.6681,19.31572 4.4456,4.44554 10.8077,6.66813 19.0856,6.66813 16.8623,0 25.2931,-8.66158 25.2931,-25.98385 0,-17.16901 -8.4308,-25.75365 -25.2931,-25.75365 z m -427.2324,30.12168 v 43.92029 h -16.7854 v 34.71992 h 16.7854 v 137.73644 c 0,8.4312 1.3036,15.71228 3.9096,21.84406 7.9713,19.00852 24.6042,28.5122 49.8979,28.5122 13.4899,0 25.2929,-4.59899 35.4104,-13.79667 v -41.61824 h -8.5078 c -1.3796,12.87674 -8.2782,19.31378 -20.695,19.31378 -12.2636,0 -18.3948,-5.67184 -18.3948,-17.01563 V 320.84463 h 31.7311 v -34.71992 h -31.7311 v -43.92029 z m 294.3263,0 v 43.92029 h -16.7854 v 34.71992 h 16.7854 v 137.73644 c 0,8.4312 1.3035,15.71228 3.9095,21.84406 7.9714,19.00852 24.6023,28.5122 49.8959,28.5122 13.4899,0 25.295,-4.59899 35.4125,-13.79667 v -41.61824 h -8.5078 c -1.3797,12.87674 -8.2781,19.31378 -20.695,19.31378 -12.2636,0 -18.395,-5.67184 -18.395,-17.01563 V 320.84463 h 31.7312 v -34.71992 h -31.7312 V 242.20442 Z M 270.40643,271.6667 c 35.39709,0 64.19585,28.79877 64.19585,64.19585 0,35.39709 -28.79876,64.1939 -64.19585,64.19389 -35.39708,0 -64.1939,-28.7968 -64.1939,-64.19389 0,-35.39708 28.79682,-64.19585 64.1939,-64.19585 z m 526.58114,6.18041 c -13.48992,0 -24.37407,4.90467 -32.65197,14.71553 -8.27791,9.81084 -12.41739,21.53711 -12.41739,35.18032 v 125.54926 c 0,13.7965 4.52208,25.59967 13.56646,35.41052 8.89108,9.81085 20.15785,14.71553 33.80104,14.71553 h 54.49605 c 7.51143,0 14.18114,-1.37852 20.00634,-4.13782 17.47581,-8.4312 26.44308,-24.22004 26.90271,-47.36751 h -39.5503 c 0.15329,5.36531 -1.37906,9.57975 -4.59825,12.64565 -3.06589,2.91258 -7.20537,4.36998 -12.41738,4.36998 H 809.1728 c -12.41685,0 -18.6251,-6.1333 -18.6251,-18.39685 v -41.61826 h 67.14363 c 13.33663,0 23.76128,-4.75282 31.27271,-14.25706 7.51142,-9.65756 11.26636,-21.23196 11.26636,-34.72187 v -29.89147 c 0,-13.94981 -4.06258,-26.13753 -12.18718,-36.56155 -8.12462,-10.42403 -19.00878,-15.6344 -32.65198,-15.6344 z m 730.29463,0 c -13.4899,0 -24.3741,4.90467 -32.652,14.71553 -8.2779,9.81084 -12.4174,21.53711 -12.4174,35.18032 v 125.54926 c 0,13.7965 4.5221,25.59967 13.5665,35.41052 8.8911,9.81085 20.1577,14.71553 33.801,14.71553 h 54.496 c 7.5115,0 14.1811,-1.37852 20.0064,-4.13782 17.4758,-8.4312 26.443,-24.22004 26.9027,-47.36751 h -39.5503 c 0.1533,5.36531 -1.379,9.57975 -4.5982,12.64565 -3.0659,2.91258 -7.2055,4.36998 -12.4174,4.36998 h -34.9502 c -12.4167,0 -18.6251,-6.1333 -18.6251,-18.39685 v -41.61826 h 67.1417 c 13.3366,0 23.7614,-4.75282 31.2727,-14.25706 7.5115,-9.65756 11.2664,-21.23196 11.2664,-34.72187 v -29.89147 c 0,-13.94981 -4.0626,-26.13753 -12.1872,-36.56155 -8.1246,-10.42403 -19.0068,-15.6344 -32.65,-15.6344 z m 630.0405,0 c -13.49,0 -24.3742,4.90467 -32.652,14.71553 -8.278,9.81084 -12.4174,21.53711 -12.4174,35.18032 v 125.54926 c 0,13.7965 4.5221,25.59967 13.5665,35.41052 8.891,9.81085 20.1578,14.71553 33.801,14.71553 h 54.4961 c 7.5114,0 14.1811,-1.37852 20.0063,-4.13782 17.4758,-8.4312 26.4432,-24.22004 26.9027,-47.36751 h -39.5503 c 0.1532,5.36531 -1.379,9.57975 -4.5982,12.64565 -3.0659,2.91258 -7.2054,4.36998 -12.4174,4.36998 h -34.9501 c -12.4169,0 -18.6271,-6.1333 -18.6271,-18.39685 v -41.61826 h 67.1437 c 13.3366,0 23.7612,-4.75282 31.2727,-14.25706 7.5114,-9.65756 11.2664,-21.23196 11.2664,-34.72187 v -29.89147 c 0,-13.94981 -4.0626,-26.13753 -12.1873,-36.56155 -8.1245,-10.42403 -19.0087,-15.6344 -32.652,-15.6344 z m -1466.56866,0.45845 c -6.43837,0 -12.4928,1.99382 -18.1647,5.97947 -5.6719,3.98566 -9.58065,9.04416 -11.72678,15.17594 v -20.9252 H 615.563 v 13.3382 c 0,5.05872 3.37233,7.587 10.11729,7.587 l 0.23021,203.72906 h 39.3201 V 350.27765 c 0,-6.13179 0.99592,-11.57289 2.98876,-16.32502 5.82519,-13.94979 18.39551,-20.9252 37.71061,-20.9252 l 23.22335,0.23021 0.002,-34.95208 z m 1654.66136,0 c -6.4383,0 -12.4947,1.99382 -18.1667,5.97947 -5.6719,3.98566 -9.5806,9.04416 -11.7267,15.17594 v -20.9252 h -45.2976 v 13.3382 c 0,5.05872 3.3723,7.587 10.1173,7.587 l 0.2302,203.72906 H 2319.89 V 350.27765 c 0,-6.13179 0.9978,-11.57289 2.9907,-16.32502 5.8252,-13.94979 18.3955,-20.9252 37.7106,-20.9252 l 23.2234,0.23021 v -34.95208 z m -1095.2137,0.23021 c -13.9498,0 -26.5969,4.52209 -37.9408,13.56646 -11.3437,9.04438 -17.0156,20.31114 -17.0156,33.80104 v 129.22864 c 0,13.33661 5.6719,24.52646 17.0156,33.57083 11.3439,9.04438 23.991,13.56646 37.9408,13.56646 h 29.6633 c 13.7966,0 26.213,-4.59899 37.2502,-13.79666 11.037,-9.04437 16.478,-20.15731 16.325,-33.34063 V 325.90327 c 0,-13.4899 -5.518,-24.75666 -16.5552,-33.80104 -11.1905,-9.04437 -23.5301,-13.56646 -37.02,-13.56646 z m 526.1072,0.23021 V 502.2692 h 39.5503 V 278.76598 Z m -856.30237,0.46041 v 223.96168 h 39.54836 V 345.6794 c 0,-21.61452 4.599,-32.42176 13.79666,-32.42176 h 33.57285 c 2.2993,-0.1533 4.5989,0.2293 6.8982,1.14907 8.1247,3.06589 12.1853,8.43204 12.1853,16.09675 v 172.68461 h 39.5503 V 336.71119 c 0,-2.29942 0.3076,-4.82965 0.9208,-7.58895 2.2995,-10.57732 7.2811,-15.8646 14.9458,-15.8646 h 31.2727 c 6.285,0 11.0359,2.06876 14.2551,6.20771 3.3724,3.98567 5.0586,8.8923 5.0586,14.71749 v 169.00523 h 39.3202 V 326.59389 c 0,-13.48992 -4.8279,-24.75667 -14.4854,-33.80104 -9.6575,-9.04438 -21.1549,-13.56646 -34.4916,-13.56646 h -43.6882 c -11.3438,-10e-6 -20.4648,5.36419 -27.3631,16.0948 -7.2048,-10.73061 -17.2469,-16.0948 -30.1236,-16.0948 h -41.39003 c -9.65755,0 -17.85766,4.59899 -24.60262,13.79666 v -13.79666 z m 917.92687,0 v 223.96168 h 39.5504 V 345.6794 c 0,-21.61452 4.5989,-32.42176 13.7966,-32.42176 h 33.5708 c 2.2994,-0.1533 4.5989,0.2293 6.8984,1.14907 8.1245,3.06589 12.1872,8.43204 12.1872,16.09675 v 172.68461 h 39.5503 V 336.71119 c 0,-2.29942 0.3057,-4.82965 0.9188,-7.58895 2.2994,-10.57732 7.2811,-15.8646 14.9458,-15.8646 h 31.2727 c 6.2851,0 11.0378,2.06876 14.257,6.20771 3.3725,3.98567 5.0587,8.8923 5.0587,14.71749 v 169.00523 h 39.3201 V 326.59389 c 0,-13.48992 -4.8297,-24.75667 -14.4873,-33.80104 -9.6575,-9.04438 -21.155,-13.56646 -34.4917,-13.56646 h -43.6881 c -11.3438,-10e-6 -20.4649,5.36419 -27.3632,16.0948 -7.2048,-10.73061 -17.2449,-16.0948 -30.1216,-16.0948 h -41.39 c -9.6575,0 -17.8596,4.59899 -24.6045,13.79666 V 279.22639 Z M 270.40643,290.4986 c -9.9271,0 -17.97351,8.0464 -17.97351,17.97351 v 27.39044 c 0,4.7667 1.89283,9.33936 5.26349,12.71002 l 18.26029,18.26029 c 7.0178,7.01865 18.39798,7.02198 25.42004,0.002 7.01951,-7.01951 7.01951,-18.40139 0,-25.42004 l -12.99485,-12.9968 v -19.94586 c 0,-9.9271 -8.04835,-17.97351 -17.97546,-17.97351 z m 982.55387,22.06842 h 21.846 c 6.2851,0 11.0359,2.07071 14.2551,6.20967 3.3726,3.98566 5.0587,8.89034 5.0587,14.71553 v 114.05074 c 0,5.82518 -1.6861,10.80678 -5.0587,14.94573 -3.2192,3.98567 -7.97,5.97947 -14.2551,5.97947 h -21.846 c -6.4383,0 -11.1123,-1.9938 -14.0249,-5.97947 -2.9126,-4.13895 -4.37,-9.12055 -4.37,-14.94573 V 333.49222 c 0,-5.82519 1.4574,-10.72987 4.37,-14.71553 2.9126,-4.13896 7.5866,-6.20967 14.0249,-6.20967 z m -443.7875,0.92082 h 31.73311 c 5.82519,0 10.72988,1.45544 14.71554,4.36803 4.13895,2.9126 6.20966,7.58851 6.20966,14.02687 v 23.68376 c 0,6.28507 -2.07071,11.1148 -6.20966,14.48728 -3.98566,3.21918 -8.89035,4.82844 -14.71554,4.82844 H 790.5477 v -42.08061 c 0,-12.87674 6.20825,-19.31377 18.6251,-19.31377 z m 730.2965,0 h 31.7312 c 5.8252,0 10.7299,1.45544 14.7155,4.36803 4.139,2.9126 6.2097,7.58851 6.2097,14.02687 v 23.68376 c 0,6.28507 -2.0707,11.1148 -6.2097,14.48728 -3.9856,3.21918 -8.8903,4.82844 -14.7155,4.82844 h -50.3563 v -42.08061 c 0,-12.87674 6.2084,-19.31377 18.6251,-19.31377 z m 630.0406,0 h 31.7311 c 5.8253,0 10.7299,1.45544 14.7156,4.36803 4.1389,2.9126 6.2096,7.58851 6.2096,14.02687 v 23.68376 c 0,6.28507 -2.0707,11.1148 -6.2096,14.48728 -3.9857,3.21918 -8.8903,4.82844 -14.7156,4.82844 h -50.3582 v -42.08061 c 0,-12.87674 6.2102,-19.31377 18.6271,-19.31377 z"
     id="rect4051"
     inkscape:connector-curvature="0" />
</svg>
