<?xml version="1.0" encoding="UTF-8" standalone="no"?>
<svg
   xmlns:dc="http://purl.org/dc/elements/1.1/"
   xmlns:cc="http://creativecommons.org/ns#"
   xmlns:rdf="http://www.w3.org/1999/02/22-rdf-syntax-ns#"
   xmlns:svg="http://www.w3.org/2000/svg"
   xmlns="http://www.w3.org/2000/svg"
   xmlns:sodipodi="http://sodipodi.sourceforge.net/DTD/sodipodi-0.dtd"
   xmlns:inkscape="http://www.inkscape.org/namespaces/inkscape"
   id="Layer_1"
   enable-background="new 0 0 511.413 511.413"
   height="543.66101"
   viewBox="0 0 543.03772 543.03772"
   width="543.66101"
   version="1.1"
   sodipodi:docname="logo.svg"
   inkscape:version="0.92.4 (f8dce91, 2019-08-02)">
  <metadata
     id="metadata4030">
    <rdf:RDF>
      <cc:Work
         rdf:about="">
        <dc:format>image/svg+xml</dc:format>
        <dc:type
           rdf:resource="http://purl.org/dc/dcmitype/StillImage" />
        <dc:title></dc:title>
      </cc:Work>
    </rdf:RDF>
  </metadata>
  <defs
     id="defs4028" />
  <sodipodi:namedview
     pagecolor="#ffffff"
     bordercolor="#666666"
     borderopacity="1"
     objecttolerance="10"
     gridtolerance="10"
     guidetolerance="10"
     inkscape:pageopacity="0"
     inkscape:pageshadow="2"
     inkscape:window-width="1850"
     inkscape:window-height="1005"
     id="namedview4026"
     showgrid="false"
     inkscape:zoom="0.921875"
     inkscape:cx="487.50929"
     inkscape:cy="183.02014"
     inkscape:window-x="70"
     inkscape:window-y="38"
     inkscape:window-maximized="1"
     inkscape:current-layer="Layer_1"
     fit-margin-top="0"
     fit-margin-left="0"
     fit-margin-right="0"
     fit-margin-bottom="0" />
  <rect
     style="fill:none;fill-opacity:1;stroke:#ffffff;stroke-width:35.95872879;stroke-miterlimit:4;stroke-dasharray:none;stroke-opacity:1"
     id="rect4051"
     width="507.07898"
     height="507.07898"
     x="17.979364"
     y="17.979364"
     ry="82.346161" />
  <path
     style="fill:#ffffff;stroke-width:0.85593235"
     d="m 269.80237,98.786674 c -53.44596,0.46988 -105.45086,34.216686 -122.05596,92.521736 -29.3405,-5.15957 -57.898971,6.82404 -72.847831,23.47107 -50.543663,51.74968 -13.469282,139.05814 58.559131,139.05814 h 38.42271 c 8.49341,46.67142 49.44127,82.16881 98.52642,82.16881 49.08516,0 90.03135,-35.49739 98.52476,-82.16881 h 29.2921 c 26.91479,0 52.29802,-11.81573 69.64177,-32.41801 0.42712,-0.50757 0.8267,-1.04012 1.19561,-1.59135 C 523.93747,238.49157 460.42995,126.85394 360.22681,135.76164 334.45639,110.2021 301.86994,98.504744 269.80237,98.786674 Z m 1.04364,35.929646 c 15.89701,0.0454 32.06222,4.23561 46.87537,13.17661 -33.98223,17.12976 -58.63379,50.15342 -64.12802,89.24387 -41.38604,7.02634 -74.20988,39.52771 -81.71128,80.75113 h -38.42437 c -25.3296,0 -45.936911,-20.60813 -45.936911,-45.9386 0,-33.58422 35.175281,-55.98312 65.655891,-41.47848 13.48778,6.39638 13.84883,14.26532 25.47153,14.26532 15.86901,0 24.06808,-19.32736 12.71072,-30.68473 -3.19519,-3.19519 -6.59948,-6.05548 -10.15588,-8.61128 10.13605,-43.88909 49.01728,-70.83997 89.64295,-70.72384 z m 99.9892,36.52411 c 65.90851,0 104.60244,73.58024 68.92375,127.73337 -10.47832,12.03184 -25.56104,18.91413 -41.53359,18.91413 h -29.2921 c -7.33618,-40.31186 -38.8859,-72.28406 -78.97777,-80.24851 7.49797,-37.85533 40.97786,-66.39899 80.87971,-66.39899 z M 270.40684,271.66714 c 35.39709,0 64.19481,28.79771 64.19481,64.19479 0,35.39709 -28.79772,64.19481 -64.19481,64.19481 -35.39708,0 -64.1948,-28.79772 -64.1948,-64.19481 0,-35.39708 28.79772,-64.19479 64.1948,-64.19479 z m 0,18.83062 c -9.9271,0 -17.974,8.04691 -17.974,17.97402 v 27.39015 c 0,4.7667 1.89263,9.34006 5.26329,12.71072 l 18.26121,18.25955 c 7.0178,7.01865 18.39771,7.02203 25.41977,0.002 7.01951,-7.01951 7.01951,-18.40112 0,-25.41977 l -12.99458,-12.99654 v -19.94608 c 0,-9.9271 -8.04858,-17.97402 -17.97569,-17.97402 z"
     id="path4021"
     inkscape:connector-curvature="0" />
</svg>
