<?xml version="1.0" encoding="UTF-8" standalone="no"?>
<!-- Created with Inkscape (http://www.inkscape.org/) -->

<svg
   xmlns:dc="http://purl.org/dc/elements/1.1/"
   xmlns:cc="http://creativecommons.org/ns#"
   xmlns:rdf="http://www.w3.org/1999/02/22-rdf-syntax-ns#"
   xmlns:svg="http://www.w3.org/2000/svg"
   xmlns="http://www.w3.org/2000/svg"
   xmlns:sodipodi="http://sodipodi.sourceforge.net/DTD/sodipodi-0.dtd"
   xmlns:inkscape="http://www.inkscape.org/namespaces/inkscape"
   width="144.25732mm"
   height="31.094456mm"
   viewBox="0 0 144.25732 31.094456"
   version="1.1"
   id="svg865"
   inkscape:version="0.92.5 (2060ec1f9f, 2020-04-08)"
   sodipodi:docname="remotetimer_logo_black.svg">
  <defs
     id="defs859" />
  <sodipodi:namedview
     id="base"
     pagecolor="#ffffff"
     bordercolor="#666666"
     borderopacity="1.0"
     inkscape:pageopacity="0.0"
     inkscape:pageshadow="2"
     inkscape:zoom="0.7"
     inkscape:cx="66.367983"
     inkscape:cy="3.0968127"
     inkscape:document-units="mm"
     inkscape:current-layer="layer1"
     showgrid="false"
     fit-margin-top="5"
     fit-margin-right="5"
     fit-margin-bottom="5"
     fit-margin-left="5"
     inkscape:window-width="1440"
     inkscape:window-height="824"
     inkscape:window-x="0"
     inkscape:window-y="0"
     inkscape:window-maximized="1" />
  <metadata
     id="metadata862">
    <rdf:RDF>
      <cc:Work
         rdf:about="">
        <dc:format>image/svg+xml</dc:format>
        <dc:type
           rdf:resource="http://purl.org/dc/dcmitype/StillImage" />
        <dc:title></dc:title>
      </cc:Work>
    </rdf:RDF>
  </metadata>
  <g
     inkscape:label="Layer 1"
     inkscape:groupmode="layer"
     id="layer1"
     transform="translate(-54.115385,-135.55386)">
    <g
       aria-label="Remotetimer"
       transform="matrix(0.51715596,0,0,0.51715596,10.00759,20.545814)"
       style="font-style:normal;font-variant:normal;font-weight:normal;font-stretch:normal;font-size:40px;line-height:1.25;font-family:Chandas;-inkscape-font-specification:Chandas;letter-spacing:0px;word-spacing:0px;fill:#000000;fill-opacity:1;stroke:none"
       id="flowRoot3748">
      <path
         d="m 165.42383,269.09077 -8.96485,-12.38281 q -0.99609,0.0391 -1.62109,0.0391 -0.52734,0 -1.15234,-0.0391 v 12.38281 h -3.73047 v -26.28906 l 5.83984,-0.19531 q 3.8086,-0.13672 6.23047,0.60546 2.10938,0.66407 3.4375,2.34375 1.34766,1.67969 1.34766,3.86719 0,5.33203 -6.52344,6.77735 l 9.33594,12.89062 z m -11.73828,-13.61328 q 0.17578,0 0.54687,0 0.3711,0.0195 0.54688,0.0195 3.18359,0 5.21484,-1.28906 2.42188,-1.52344 2.42188,-4.53125 0,-2.51953 -1.5625,-4.04297 -1.5625,-1.54297 -4.10157,-1.54297 -1.13281,0 -3.0664,0.37109 z"
         style="font-style:normal;font-variant:normal;font-weight:normal;font-stretch:normal;font-family:'Times Sans Serif';-inkscape-font-specification:'Times Sans Serif';fill:#483e37"
         id="path1424"
         inkscape:connector-curvature="0" />
      <path
         d="m 176.40039,257.93843 q -0.0195,3.32031 1.54297,5.72265 1.81641,2.79297 4.98047,2.79297 3.63281,0 5.23437,-4.27734 l 0.60547,0.39062 q -0.44922,2.89063 -2.40234,4.90235 -2.08985,2.16797 -4.92188,2.16797 -3.65234,0 -5.83984,-2.8711 -1.97266,-2.61719 -1.97266,-6.38672 0,-4.12109 2.03125,-6.77734 2.2461,-2.94922 6.23047,-2.94922 3.16406,0 5.03906,2.08984 1.83594,2.01172 1.83594,5.19532 z m 0,-1.13282 h 8.28125 q -0.0977,-1.71875 -0.41016,-2.42187 -1.03515,-2.34375 -3.47656,-2.34375 -1.875,0 -3.10547,1.48437 -1.09375,1.32813 -1.28906,3.28125 z"
         style="font-style:normal;font-variant:normal;font-weight:normal;font-stretch:normal;font-family:'Times Sans Serif';-inkscape-font-specification:'Times Sans Serif';fill:#483e37"
         id="path1426"
         inkscape:connector-curvature="0" />
      <path
         d="m 196.45898,254.4814 q 1.9336,-1.9336 2.30469,-2.2461 1.85547,-1.5625 3.90625,-1.5625 3.67188,0 4.51172,3.8086 1.58203,-1.83594 2.71484,-2.63672 1.66016,-1.17188 3.53516,-1.17188 3.06641,0 4.27734,3.125 0.42969,1.11328 0.42969,3.55469 l 0.0195,11.73828 h -3.26172 v -11.73828 q 0,-2.20703 -0.52734,-3.08594 -0.74219,-1.25 -2.44141,-1.25 -2.03125,0 -4.60937,2.44141 l -0.0391,0.21484 0.0391,0.83985 -0.0391,12.57812 h -3.1836 v -11.73828 q 0,-2.20703 -0.64453,-3.14453 -0.85937,-1.25 -2.40234,-1.25 -1.03516,0 -2.08985,0.5664 -1.64062,0.87891 -2.5,1.9336 l 0.0391,13.63281 h -3.22266 V 250.6728 h 3.18359 z"
         style="font-style:normal;font-variant:normal;font-weight:normal;font-stretch:normal;font-family:'Times Sans Serif';-inkscape-font-specification:'Times Sans Serif';fill:#483e37"
         id="path1428"
         inkscape:connector-curvature="0" />
      <path
         d="m 231.00977,250.6728 q 4.0625,0 6.52343,3.08594 2.08985,2.63672 2.08985,6.05469 0,2.48047 -1.13282,4.82422 -1.1914,2.51953 -3.20312,3.76953 -2.01172,1.23047 -4.49219,1.23047 -4.04297,0 -6.42578,-3.22266 -2.01172,-2.71484 -2.01172,-6.09375 0,-2.46094 1.17188,-4.80469 1.25,-2.5 3.24218,-3.67187 2.01172,-1.17188 4.23829,-1.17188 z m -0.60547,1.26953 q -2.61719,0 -3.76953,2.77344 -0.64454,1.54297 -0.64454,3.96484 0,3.32032 1.19141,6.03516 1.54297,3.53516 4.45313,3.53516 4.35546,0 4.35546,-6.9336 0,-4.74609 -2.05078,-7.5 -1.40625,-1.875 -3.53515,-1.875 z"
         style="font-style:normal;font-variant:normal;font-weight:normal;font-stretch:normal;font-family:'Times Sans Serif';-inkscape-font-specification:'Times Sans Serif';fill:#483e37"
         id="path1430"
         inkscape:connector-curvature="0" />
      <path
         d="m 247.45508,245.32124 v 5.87891 h 4.17969 v 1.36718 h -4.17969 v 11.60157 q 0,2.94921 1.77734,2.94921 1.52344,0 2.1875,-1.58203 h 0.76172 q -1.36719,3.84766 -4.51172,3.84766 -2.16797,0 -3.02734,-1.93359 -0.41016,-0.91797 -0.41016,-2.85157 v -12.03125 h -2.83203 v -1.36718 h 2.8125 v -5.87891 z"
         style="font-style:normal;font-variant:normal;font-weight:normal;font-stretch:normal;font-family:'Times Sans Serif';-inkscape-font-specification:'Times Sans Serif';fill:#483e37"
         id="path1432"
         inkscape:connector-curvature="0" />
      <path
         d="m 256.38086,257.93843 q -0.0195,3.32031 1.54297,5.72265 1.8164,2.79297 4.98047,2.79297 3.63281,0 5.23437,-4.27734 l 0.60547,0.39062 q -0.44922,2.89063 -2.40234,4.90235 -2.08985,2.16797 -4.92188,2.16797 -3.65234,0 -5.83984,-2.8711 -1.97266,-2.61719 -1.97266,-6.38672 0,-4.12109 2.03125,-6.77734 2.2461,-2.94922 6.23047,-2.94922 3.16406,0 5.03906,2.08984 1.83594,2.01172 1.83594,5.19532 z m 0,-1.13282 h 8.28125 q -0.0977,-1.71875 -0.41016,-2.42187 -1.03515,-2.34375 -3.47656,-2.34375 -1.875,0 -3.10547,1.48437 -1.09375,1.32813 -1.28906,3.28125 z"
         style="font-style:normal;font-variant:normal;font-weight:normal;font-stretch:normal;font-family:'Times Sans Serif';-inkscape-font-specification:'Times Sans Serif';fill:#483e37"
         id="path1434"
         inkscape:connector-curvature="0" />
      <path
         d="m 276.32227,245.32124 v 5.87891 h 4.17968 v 1.36718 h -4.17968 v 11.60157 q 0,2.94921 1.77734,2.94921 1.52344,0 2.1875,-1.58203 h 0.76172 q -1.36719,3.84766 -4.51172,3.84766 -2.16797,0 -3.02734,-1.93359 -0.41016,-0.91797 -0.41016,-2.85157 v -12.03125 h -2.83203 v -1.36718 h 2.8125 v -5.87891 z"
         style="font-style:normal;font-variant:normal;font-weight:normal;font-stretch:normal;font-family:'Times Sans Serif';-inkscape-font-specification:'Times Sans Serif';fill:#483e37"
         id="path1436"
         inkscape:connector-curvature="0" />
      <path
         d="m 286.79102,241.31733 q 0.82031,0 1.38671,0.58594 0.58594,0.56641 0.58594,1.38672 0,0.82031 -0.58594,1.40625 -0.5664,0.58594 -1.38671,0.58594 -0.82032,0 -1.40625,-0.58594 -0.58594,-0.58594 -0.58594,-1.40625 0,-0.83984 0.5664,-1.40625 0.58594,-0.56641 1.42579,-0.56641 z m 1.62109,9.35547 0.0195,18.41797 -3.26172,0.0586 v -18.55468 l 2.38281,0.0781 z"
         style="font-style:normal;font-variant:normal;font-weight:normal;font-stretch:normal;font-family:'Times Sans Serif';-inkscape-font-specification:'Times Sans Serif';fill:#483e37"
         id="path1438"
         inkscape:connector-curvature="0" />
      <path
         d="m 298.66602,254.4814 q 1.93359,-1.9336 2.30468,-2.2461 1.85547,-1.5625 3.90625,-1.5625 3.67188,0 4.51172,3.8086 1.58203,-1.83594 2.71485,-2.63672 1.66015,-1.17188 3.53515,-1.17188 3.06641,0 4.27735,3.125 0.42968,1.11328 0.42968,3.55469 l 0.0195,11.73828 h -3.26171 v -11.73828 q 0,-2.20703 -0.52735,-3.08594 -0.74219,-1.25 -2.4414,-1.25 -2.03125,0 -4.60938,2.44141 l -0.0391,0.21484 0.0391,0.83985 -0.0391,12.57812 h -3.1836 v -11.73828 q 0,-2.20703 -0.64453,-3.14453 -0.85937,-1.25 -2.40234,-1.25 -1.03516,0 -2.08984,0.5664 -1.64063,0.87891 -2.5,1.9336 l 0.0391,13.63281 h -3.22266 V 250.6728 h 3.1836 z"
         style="font-style:normal;font-variant:normal;font-weight:normal;font-stretch:normal;font-family:'Times Sans Serif';-inkscape-font-specification:'Times Sans Serif';fill:#483e37"
         id="path1440"
         inkscape:connector-curvature="0" />
      <path
         d="m 327.47461,257.93843 q -0.0195,3.32031 1.54297,5.72265 1.8164,2.79297 4.98047,2.79297 3.63281,0 5.23437,-4.27734 l 0.60547,0.39062 q -0.44922,2.89063 -2.40234,4.90235 -2.08985,2.16797 -4.92188,2.16797 -3.65234,0 -5.83984,-2.8711 -1.97266,-2.61719 -1.97266,-6.38672 0,-4.12109 2.03125,-6.77734 2.2461,-2.94922 6.23047,-2.94922 3.16406,0 5.03906,2.08984 1.83594,2.01172 1.83594,5.19532 z m 0,-1.13282 h 8.28125 q -0.0977,-1.71875 -0.41016,-2.42187 -1.03515,-2.34375 -3.47656,-2.34375 -1.875,0 -3.10547,1.48437 -1.09375,1.32813 -1.28906,3.28125 z"
         style="font-style:normal;font-variant:normal;font-weight:normal;font-stretch:normal;font-family:'Times Sans Serif';-inkscape-font-specification:'Times Sans Serif';fill:#483e37"
         id="path1442"
         inkscape:connector-curvature="0" />
      <path
         d="m 347.45508,250.82905 v 3.86719 q 2.24609,-3.86719 4.45312,-3.82813 1.77735,0.0781 2.65625,2.83204 l -1.42578,1.09375 q -0.60547,-1.15235 -1.26953,-1.52344 -0.66406,-0.3711 -1.42578,-0.15625 -0.74219,0.19531 -1.17188,0.58594 -0.89843,0.82031 -1.8164,2.63671 v 8.57422 l -0.0391,4.10157 h -3.16407 l -0.0195,-3.94532 v -6.93359 q 0,-2.67578 0,-7.26563 z"
         style="font-style:normal;font-variant:normal;font-weight:normal;font-stretch:normal;font-family:'Times Sans Serif';-inkscape-font-specification:'Times Sans Serif';fill:#483e37"
         id="path1444"
         inkscape:connector-curvature="0" />
    </g>
    <path
       style="fill:#d40000;stroke:none;stroke-width:0.07156579px;stroke-linecap:butt;stroke-linejoin:miter;stroke-opacity:1"
       d="m 61.521477,140.71991 c 3.799307,0.99984 7.316607,0.0286 10.311758,-0.14459 9.740642,-0.56333 13.207343,10.13114 4.192956,12.65116 4.77597,1.73143 5.45248,5.21691 5.383214,8.40346 -2.928625,-0.003 -4.88572,-0.0556 -8.697764,-0.009 0.15479,-3.466 0.689168,-4.76948 -3.480931,-8.61156 8.232979,-4.62461 1.348446,-10.0307 -1.012095,-8.31362 -2.36054,1.71708 0.279254,14.06295 3.144719,16.95256 l -9.131337,-0.006 c -0.90551,-6.2e-4 -6.085883,-19.16131 -0.71052,-20.92241 z"
       id="path3762"
       inkscape:connector-curvature="0"
       sodipodi:nodetypes="cscccczcsc" />
  </g>
</svg>
