<?xml version="1.0" encoding="UTF-8" standalone="no"?>
<svg
   xmlns:dc="http://purl.org/dc/elements/1.1/"
   xmlns:cc="http://creativecommons.org/ns#"
   xmlns:rdf="http://www.w3.org/1999/02/22-rdf-syntax-ns#"
   xmlns:svg="http://www.w3.org/2000/svg"
   xmlns="http://www.w3.org/2000/svg"
   id="svg8"
   version="1.1"
   viewBox="0 0 208.59023 125.89205"
   height="125.89205mm"
   width="208.59023mm">
  <defs
     id="defs2" />
  <metadata
     id="metadata5">
    <rdf:RDF>
      <cc:Work
         rdf:about="">
        <dc:format>image/svg+xml</dc:format>
        <dc:type
           rdf:resource="http://purl.org/dc/dcmitype/StillImage" />
        <dc:title></dc:title>
      </cc:Work>
    </rdf:RDF>
  </metadata>
  <g
     transform="translate(-0.57495792,-68.197284)"
     id="layer1">
    <path
       id="path3794"
       d="M 35.070467,193.55301 C 18.05362,190.52622 4.8627326,177.72616 1.334017,160.81612 0.38930867,156.28896 0.31764757,149.4431 1.1683021,144.98523 c 1.5725856,-8.24116 5.5005585,-15.74794 11.3010759,-21.59758 5.685972,-5.73412 13.110748,-9.88032 20.550205,-11.47579 l 1.735804,-0.37227 0.432527,-2.52229 c 1.387098,-8.08894 6.338673,-17.793225 12.447373,-24.394865 10.984569,-11.87096 27.324111,-17.98174 43.006936,-16.08406 14.591157,1.76559 27.729637,9.59514 36.060787,21.48952 l 0.52216,0.74548 3.13515,-1.05011 c 16.50908,-5.52967 33.86678,3.66383 38.72487,20.510595 l 0.8426,2.92195 2.78753,0.25709 c 13.41127,1.23689 25.75519,9.59743 31.92333,21.62168 3.12679,6.0954 4.52848,11.87018 4.52653,18.64869 -0.003,10.92004 -4.1327,20.90252 -11.83205,28.60187 -6.20722,6.20722 -14.30853,10.26096 -22.89227,11.45485 -1.86432,0.2593 -23.7714,0.36836 -69.63411,0.34666 -56.209071,-0.0266 -67.365563,-0.11196 -69.736283,-0.53364 z m 140.155853,-8.10785 c 6.00656,-1.23541 11.26374,-3.9889 15.69373,-8.21972 5.40693,-5.16384 8.43876,-10.71057 9.80648,-17.94097 0.62033,-3.27934 0.23406,-11.27177 -0.69429,-14.36598 -2.6928,-8.97512 -8.5921,-16.0898 -16.73022,-20.17701 -4.41606,-2.21788 -8.85237,-3.3005 -14.25635,-3.47908 -6.01539,-0.19879 -6.37616,-0.49672 -7.11908,-5.879 -0.73542,-5.32792 -2.93279,-9.56552 -6.86996,-13.24854 -2.71943,-2.543885 -4.61329,-3.676145 -8.11512,-4.851665 -5.7975,-1.94616 -11.605,-1.46109 -17.35253,1.44936 -4.87542,2.468815 -5.32389,2.294185 -9.16376,-3.5684 -5.99905,-9.15914 -16.29846,-15.97792 -27.499195,-18.206 -3.253242,-0.64714 -12.621758,-0.64714 -15.875,0 -8.519708,1.69476 -16.173515,5.77478 -22.225001,11.84751 -6.82153,6.84547 -11.011924,15.285815 -12.236409,24.646765 -0.372385,2.84681 -0.550989,3.36049 -1.501461,4.31836 -0.903732,0.91076 -1.536781,1.16044 -3.90102,1.53861 -12.974784,2.07536 -23.209288,10.82629 -27.103677,23.17477 -3.5958554,11.40187 -0.8364584,23.76558 7.3302,32.84356 3.324272,3.69522 9.061161,7.38611 14.129032,9.09006 4.622536,1.55422 2.936269,1.51865 73.657241,1.55348 60.14478,0.0296 67.59659,-0.0264 70.02639,-0.52611 z M 72.765865,170.15541 c -1.447829,-0.88284 -2.098206,-2.73122 -1.547813,-4.39893 0.730709,-2.21407 5.616441,-6.17411 10.893771,-8.82976 12.766236,-6.42418 31.772367,-6.42127 44.579087,0.007 5.29276,2.65661 10.13264,6.57766 10.86753,8.80438 0.85613,2.59412 -1.08463,5.09281 -3.95791,5.09571 -1.10053,0.001 -1.68345,-0.33588 -3.70417,-2.14141 -5.55785,-4.96599 -12.0573,-7.51778 -21.52651,-8.45167 -8.787371,-0.86664 -19.279853,1.35082 -25.563404,5.4025 -1.031176,0.66491 -2.873054,2.1051 -4.093062,3.20042 -1.855064,1.66546 -2.432583,1.99127 -3.527778,1.99016 -0.72027,-7e-4 -1.809154,-0.30594 -2.419741,-0.67825 z M 71.40658,142.35119 c -2.140705,-0.38708 -3.351389,-1.89773 -3.351389,-4.18178 0,-1.17839 0.344734,-1.6537 3.59477,-4.95641 l 3.594767,-3.65302 -3.594767,-3.65302 c -3.318965,-3.37275 -3.594668,-3.75845 -3.593451,-5.02709 0.0028,-2.90261 2.476007,-4.89049 5.034125,-4.04624 0.671502,0.22162 2.477234,1.70965 4.314173,3.55514 1.737607,1.74569 3.324655,3.17399 3.526772,3.17399 0.202117,0 1.79293,-1.4335 3.535134,-3.18555 3.703683,-3.72462 4.945528,-4.31498 7.012989,-3.33391 2.020536,0.95881 2.898926,3.32625 1.936676,5.21973 -0.21537,0.42381 -1.839499,2.23908 -3.609174,4.03393 l -3.217594,3.26337 3.471245,3.48432 c 3.166003,3.17793 3.486903,3.62328 3.649363,5.06457 0.15517,1.37663 0.0479,1.72397 -0.832203,2.69576 -1.176828,1.29936 -2.691532,1.80888 -4.185324,1.40787 -0.642959,-0.17261 -2.371076,-1.60382 -4.403083,-3.6466 l -3.344747,-3.36248 -3.365951,3.35332 c -3.279102,3.2668 -4.599567,4.07848 -6.172331,3.7941 z m 47.71729,-0.0241 c -0.53132,-0.0622 -1.44413,-0.59126 -2.02847,-1.1756 -0.86035,-0.86035 -1.06243,-1.35851 -1.06243,-2.61906 0,-1.67853 0.79801,-2.75272 5.28868,-7.11902 l 1.90347,-1.85076 -3.59608,-3.65435 c -3.48785,-3.54436 -3.59607,-3.70222 -3.59607,-5.24541 0,-1.93157 0.90329,-3.22779 2.65135,-3.8047 1.95433,-0.64499 3.19066,0.007 6.69826,3.53061 1.73761,1.74569 3.29524,3.17399 3.46141,3.17399 0.16616,0 1.79342,-1.46374 3.61613,-3.25275 1.82271,-1.78901 3.67444,-3.38642 4.11496,-3.5498 2.68454,-0.99563 5.77672,2.02975 5.04684,4.93783 -0.13245,0.52772 -1.76272,2.50705 -3.63206,4.40972 l -3.39174,3.45222 3.37057,3.43958 c 1.85381,1.89177 3.4861,3.81057 3.62732,4.26401 0.89333,2.86842 -1.96776,5.7433 -4.92554,4.94928 -0.64248,-0.17248 -2.36763,-1.60036 -4.39041,-3.63387 l -3.33208,-3.34976 -3.5552,3.45895 c -3.51646,3.42125 -4.29065,3.87064 -6.26891,3.6389 z"
       style="fill:red;stroke-width:0.35277778" />
  </g>
</svg>
